<?xml version="1.0" encoding="UTF-8"?>
<svg xmlns="http://www.w3.org/2000/svg" version="1.1" viewBox="0 0 52.1 52.8">
  <defs>
    <style>
      .cls-1 {
        fill: #2eb4fc;
      }

      .cls-2 {
        fill: #2cb6fe;
      }
    </style>
  </defs>
  <!-- Generator: Adobe Illustrator 28.6.0, SVG Export Plug-In . SVG Version: 1.2.0 Build 709)  -->
  <g>
    <g id="Layer_1">
      <g id="Layer_1-2" data-name="Layer_1">
        <g>
          <path class="cls-2" d="M44.5,38.4l-1.1-3-1.1,3c-.8,2.1-2.4,3.8-4.5,4.5l-3,1.1,3,1.1c2.1.8,3.8,2.4,4.5,4.5l1.1,3,1.1-3c.8-2.1,2.4-3.8,4.5-4.5l3-1.1-3-1.1c-2.1-.8-3.8-2.4-4.5-4.5Z"/>
          <path class="cls-1" d="M28.7,9L25.5.2l-3.2,8.8c-2.3,6.2-7.1,11-13.3,13.3L0,25.6l8.8,3.2c6.2,2.3,11,7.1,13.3,13.3l3.2,8.8,3.2-8.8c2.3-6.2,7.1-11,13.3-13.3l8.8-3.2-8.8-3.2c-6.2-2.3-11-7.1-13.3-13.3Z"/>
        </g>
      </g>
    </g>
  </g>
</svg>